<?xml version="1.0" encoding="UTF-8" standalone="no"?>
<!-- Created with Inkscape (http://www.inkscape.org/) -->

<svg
   xmlns:dc="http://purl.org/dc/elements/1.1/"
   xmlns:cc="http://creativecommons.org/ns#"
   xmlns:rdf="http://www.w3.org/1999/02/22-rdf-syntax-ns#"
   xmlns:svg="http://www.w3.org/2000/svg"
   xmlns="http://www.w3.org/2000/svg"
   xmlns:sodipodi="http://sodipodi.sourceforge.net/DTD/sodipodi-0.dtd"
   xmlns:inkscape="http://www.inkscape.org/namespaces/inkscape"
   id="svg2"
   version="1.1"
   inkscape:version="0.91 r13725"
   xml:space="preserve"
   width="284.99731"
   height="95"
   viewBox="0 0 284.99731 95"
   sodipodi:docname="SOS-1131.svg"><metadata
     id="metadata8"><rdf:RDF><cc:Work
         rdf:about=""><dc:format>image/svg+xml</dc:format><dc:type
           rdf:resource="http://purl.org/dc/dcmitype/StillImage" /><dc:title></dc:title></cc:Work></rdf:RDF></metadata><defs
     id="defs6" /><sodipodi:namedview
     pagecolor="#ffffff"
     bordercolor="#666666"
     borderopacity="1"
     objecttolerance="10"
     gridtolerance="10"
     guidetolerance="10"
     inkscape:pageopacity="0"
     inkscape:pageshadow="2"
     inkscape:window-width="1920"
     inkscape:window-height="1097"
     id="namedview4"
     showgrid="false"
     inkscape:zoom="1.0253998"
     inkscape:cx="159.45"
     inkscape:cy="53.149997"
     inkscape:window-x="0"
     inkscape:window-y="36"
     inkscape:window-maximized="1"
     inkscape:current-layer="g10"
     borderlayer="true"
     inkscape:showpageshadow="false"
     fit-margin-top="0"
     fit-margin-left="0"
     fit-margin-right="0"
     fit-margin-bottom="0" /><g
     id="g10"
     inkscape:groupmode="layer"
     inkscape:label="ink_ext_XXXXXX"
     transform="matrix(1.25,0,0,-1.25,0,95.000002)"><g
       id="g12"
       transform="scale(0.08936992,0.08936992)"><path
         d="M 2551.17,0 0,0 l 0,850.398 2551.17,0 0,-850.398"
         style="fill:#00adef;fill-opacity:1;fill-rule:nonzero;stroke:none"
         id="path14"
         inkscape:connector-curvature="0" /><path
         d="m 661.465,491.074 24.379,0 33.566,-105.945 0.379,0 34.316,105.945 23.821,0 -45.762,-133.898 -26.066,0 -44.633,133.898"
         style="fill:#ffffff;fill-opacity:1;fill-rule:nonzero;stroke:none"
         id="path16"
         inkscape:connector-curvature="0" /><path
         d="m 791.207,491.074 23.445,0 0,-133.898 -23.445,0 0,133.898"
         style="fill:#ffffff;fill-opacity:1;fill-rule:nonzero;stroke:none"
         id="path18"
         inkscape:connector-curvature="0" /><path
         d="m 843.336,491.074 23.445,0 0,-113.644 68.078,0 0,-20.254 -91.523,0 0,133.898"
         style="fill:#ffffff;fill-opacity:1;fill-rule:nonzero;stroke:none"
         id="path20"
         inkscape:connector-curvature="0" /><path
         d="m 950.961,491.074 23.449,0 0,-113.644 68.08,0 0,-20.254 -91.529,0 0,133.898"
         style="fill:#ffffff;fill-opacity:1;fill-rule:nonzero;stroke:none"
         id="path22"
         inkscape:connector-curvature="0" /><path
         d="m 1096.16,410.434 40.89,0 -20.07,57.574 -0.57,0 -20.25,-57.574 z m 8.25,80.64 24.94,0 51.57,-133.898 -25.12,0 -12.57,35.453 -53.45,0 -12.56,-35.453 -24.19,0 51.38,133.898"
         style="fill:#ffffff;fill-opacity:1;fill-rule:nonzero;stroke:none"
         id="path24"
         inkscape:connector-curvature="0" /><path
         d="m 1310.48,357.176 -15,0 -3.56,15.754 c -12.57,-14.258 -24,-18.938 -40.32,-18.938 -40.13,0 -64.13,31.875 -64.13,70.133 0,38.258 24,70.137 64.13,70.137 29.25,0 53.82,-15.567 57.38,-45.758 l -22.87,0 c -2.26,17.629 -17.64,26.633 -34.51,26.633 -28.69,0 -40.7,-25.317 -40.7,-51.012 0,-25.699 12.01,-51 40.7,-51 24,-0.383 37.13,14.051 37.51,36.746 l -35.64,0 0,17.82 57.01,0 0,-70.515"
         style="fill:#ffffff;fill-opacity:1;fill-rule:nonzero;stroke:none"
         id="path26"
         inkscape:connector-curvature="0" /><path
         d="m 1335.95,491.074 96.4,0 0,-20.254 -72.95,0 0,-35.066 67.51,0 0,-19.129 -67.51,0 0,-39.195 74.26,0 0,-20.254 -97.71,0 0,133.898"
         style="fill:#ffffff;fill-opacity:1;fill-rule:nonzero;stroke:none"
         id="path28"
         inkscape:connector-curvature="0" /><path
         d="m 1469.46,401.816 c 0,-20.636 15.19,-28.691 33.94,-28.691 20.63,0 28.32,10.117 28.32,20.242 0,10.313 -5.63,14.446 -11.06,16.504 -9.39,3.567 -21.57,6.004 -39.95,11.067 -22.88,6.191 -29.63,20.066 -29.63,33.945 0,26.816 24.75,39.379 48.94,39.379 27.94,0 51.39,-14.813 51.39,-42.758 l -23.45,0 c -1.12,17.254 -12.74,23.633 -28.87,23.633 -10.88,0 -24.56,-3.942 -24.56,-17.442 0,-9.379 6.36,-14.629 15.93,-17.257 2.06,-0.559 31.69,-8.25 38.64,-10.309 17.62,-5.25 26.06,-20.258 26.06,-34.133 0,-30 -26.63,-42.004 -53.26,-42.004 -30.56,0 -55.32,14.629 -55.88,47.824 l 23.44,0"
         style="fill:#ffffff;fill-opacity:1;fill-rule:nonzero;stroke:none"
         id="path30"
         inkscape:connector-curvature="0" /><path
         d="m 692.934,293.77 0,-126.473 -16.387,0 0,126.473 16.387,0"
         style="fill:#99def9;fill-opacity:1;fill-rule:nonzero;stroke:none"
         id="path32"
         inkscape:connector-curvature="0" /><path
         d="m 737.777,293.77 64.864,-102.559 0.343,0 0,102.559 15.528,0 0,-126.473 -17.942,0 -64.343,101.492 -0.344,0 0,-101.492 -15.528,0 0,126.473 17.422,0"
         style="fill:#99def9;fill-opacity:1;fill-rule:nonzero;stroke:none"
         id="path34"
         inkscape:connector-curvature="0" /><path
         d="m 831.957,279.598 0,14.172 98.496,0 0,-14.172 -41.055,0 0,-112.301 -16.386,0 0,112.301 -41.055,0"
         style="fill:#99def9;fill-opacity:1;fill-rule:nonzero;stroke:none"
         id="path36"
         inkscape:connector-curvature="0" /><path
         d="m 1029.13,293.77 0,-14.172 -68.657,0 0,-40.215 63.997,0 0,-14.168 -63.997,0 0,-43.75 69.167,0 0,-14.168 -85.554,0 0,126.473 85.044,0"
         style="fill:#99def9;fill-opacity:1;fill-rule:nonzero;stroke:none"
         id="path38"
         inkscape:connector-curvature="0" /><path
         d="m 1110.88,236.379 c 3.45,0.582 6.47,1.746 9.06,3.457 2.58,1.707 4.65,4.012 6.21,6.914 1.55,2.879 2.33,6.629 2.33,11.238 0,6.375 -1.73,11.571 -5.17,15.598 -3.45,4 -9.04,6.012 -16.74,6.012 l -40.71,0 0,-44.098 34.15,0 c 3.8,0 7.43,0.293 10.87,0.879 z m -3.44,57.391 c 11.73,0 20.89,-2.95 27.51,-8.86 6.61,-5.906 9.92,-13.992 9.92,-24.265 0,-7.676 -1.7,-14.407 -5.09,-20.184 -3.4,-5.793 -8.83,-9.758 -16.3,-11.875 l 0,-0.356 c 3.56,-0.71 6.47,-1.894 8.71,-3.542 2.24,-1.653 4.03,-3.633 5.34,-5.938 1.32,-2.297 2.31,-4.871 2.93,-7.703 0.64,-2.836 1.13,-5.793 1.48,-8.852 0.22,-3.074 0.4,-6.199 0.52,-9.394 0.1,-3.184 0.4,-6.317 0.86,-9.383 0.45,-3.078 1.12,-5.996 1.98,-8.77 0.86,-2.773 2.16,-5.234 3.87,-7.351 l -18.28,0 c -1.15,1.297 -1.92,3.074 -2.32,5.308 -0.41,2.239 -0.66,4.758 -0.78,7.532 -0.12,2.773 -0.24,5.75 -0.34,8.945 -0.12,3.191 -0.46,6.316 -1.04,9.383 -0.46,3.078 -1.03,5.996 -1.73,8.781 -0.68,2.762 -1.78,5.184 -3.27,7.258 -1.5,2.066 -3.46,3.719 -5.87,4.957 -2.41,1.242 -5.63,1.867 -9.66,1.867 l -40.02,0 0,-54.031 -16.38,0 0,126.473 57.96,0"
         style="fill:#99def9;fill-opacity:1;fill-rule:nonzero;stroke:none"
         id="path40"
         inkscape:connector-curvature="0" /><path
         d="m 1184.89,293.77 64.86,-102.559 0.34,0 0,102.559 15.53,0 0,-126.473 -17.94,0 -64.35,101.492 -0.34,0 0,-101.492 -15.52,0 0,126.473 17.42,0"
         style="fill:#99def9;fill-opacity:1;fill-rule:nonzero;stroke:none"
         id="path42"
         inkscape:connector-curvature="0" /><path
         d="m 1355.14,219.551 -20.53,58.984 -0.34,0 -20.88,-58.984 41.75,0 z m -11.39,74.219 48.13,-126.473 -18.11,0 -13.45,38.082 -52.1,0 -13.8,-38.082 -16.73,0 47.96,126.473 18.1,0"
         style="fill:#99def9;fill-opacity:1;fill-rule:nonzero;stroke:none"
         id="path44"
         inkscape:connector-curvature="0" /><path
         d="m 1390.84,279.598 0,14.172 98.5,0 0,-14.172 -41.05,0 0,-112.301 -16.39,0 0,112.301 -41.06,0"
         style="fill:#99def9;fill-opacity:1;fill-rule:nonzero;stroke:none"
         id="path46"
         inkscape:connector-curvature="0" /><path
         d="m 1520.04,293.77 0,-126.473 -16.38,0 0,126.473 16.38,0"
         style="fill:#99def9;fill-opacity:1;fill-rule:nonzero;stroke:none"
         id="path48"
         inkscape:connector-curvature="0" /><path
         d="m 1559.56,211.672 c 1.6,-6.203 4.13,-11.789 7.58,-16.75 3.45,-4.953 7.87,-8.938 13.28,-11.953 5.41,-3.008 11.85,-4.512 19.32,-4.512 7.48,0 13.92,1.504 19.33,4.512 5.4,3.015 9.82,7 13.28,11.953 3.45,4.961 5.98,10.547 7.59,16.75 1.61,6.199 2.41,12.488 2.41,18.863 0,6.379 -0.8,12.668 -2.41,18.867 -1.61,6.192 -4.14,11.77 -7.59,16.731 -3.46,4.961 -7.88,8.945 -13.28,11.961 -5.41,3.008 -11.85,4.511 -19.33,4.511 -7.47,0 -13.91,-1.503 -19.32,-4.511 -5.41,-3.016 -9.83,-7 -13.28,-11.961 -3.45,-4.961 -5.98,-10.539 -7.58,-16.731 -1.62,-6.199 -2.43,-12.488 -2.43,-18.867 0,-6.375 0.81,-12.664 2.43,-18.863 z m -15.1,43.75 c 2.47,7.965 6.18,15.027 11.12,21.16 4.94,6.141 11.1,11.047 18.46,14.707 7.36,3.66 15.93,5.496 25.7,5.496 9.78,0 18.34,-1.836 25.7,-5.496 7.37,-3.66 13.52,-8.566 18.46,-14.707 4.94,-6.133 8.65,-13.195 11.12,-21.16 2.48,-7.973 3.72,-16.274 3.72,-24.887 0,-8.621 -1.24,-16.91 -3.72,-24.89 -2.47,-7.969 -6.18,-15.032 -11.12,-21.165 -4.94,-6.152 -11.09,-11.015 -18.46,-14.617 -7.36,-3.605 -15.92,-5.402 -25.7,-5.402 -9.77,0 -18.34,1.797 -25.7,5.402 -7.36,3.602 -13.52,8.465 -18.46,14.617 -4.94,6.133 -8.65,13.196 -11.12,21.165 -2.47,7.98 -3.71,16.269 -3.71,24.89 0,8.613 1.24,16.914 3.71,24.887"
         style="fill:#99def9;fill-opacity:1;fill-rule:nonzero;stroke:none"
         id="path50"
         inkscape:connector-curvature="0" /><path
         d="m 1695.99,293.77 64.86,-102.559 0.35,0 0,102.559 15.52,0 0,-126.473 -17.94,0 -64.34,101.492 -0.34,0 0,-101.492 -15.53,0 0,126.473 17.42,0"
         style="fill:#99def9;fill-opacity:1;fill-rule:nonzero;stroke:none"
         id="path52"
         inkscape:connector-curvature="0" /><path
         d="m 1866.25,219.551 -20.53,58.984 -0.34,0 -20.88,-58.984 41.75,0 z m -11.39,74.219 48.12,-126.473 -18.1,0 -13.46,38.082 -52.1,0 -13.8,-38.082 -16.73,0 47.96,126.473 18.11,0"
         style="fill:#99def9;fill-opacity:1;fill-rule:nonzero;stroke:none"
         id="path54"
         inkscape:connector-curvature="0" /><path
         d="m 1931.45,293.77 0,-112.305 65.21,0 0,-14.168 -81.6,0 0,126.473 16.39,0"
         style="fill:#99def9;fill-opacity:1;fill-rule:nonzero;stroke:none"
         id="path56"
         inkscape:connector-curvature="0" /><path
         d="m 407.566,513.418 c 0.774,0.352 1.653,0.352 2.461,0 0.774,-0.344 1.418,-0.996 1.672,-1.809 0.215,-0.652 5.711,-16.648 -1.719,-33.906 -7.312,-17.078 -23.828,-27.312 -24.542,-27.773 -0.829,-0.508 -1.883,-0.555 -2.801,-0.203 -0.891,0.41 -1.543,1.23 -1.778,2.226 -0.156,0.762 -4.14,19.793 3.184,36.863 7.422,17.286 22.891,24.309 23.523,24.602 M 359.023,491.27 c 7.559,-16.965 3.868,-36.036 3.692,-36.829 -0.176,-0.996 -0.84,-1.796 -1.731,-2.195 -0.906,-0.41 -1.961,-0.324 -2.839,0.145 -0.665,0.441 -17.344,10.429 -24.903,27.422 -7.617,17.191 -2.285,33.261 -2.051,33.957 0.286,0.789 0.879,1.464 1.68,1.796 0.774,0.34 1.66,0.34 2.422,0 0.691,-0.273 16.113,-7.121 23.73,-24.296 m 188.383,-72.813 -109.23,0 -0.754,-2.539 c 0,0 -6.277,-19.23 -18.281,-16.145 -11.094,2.903 -6.465,18.399 -6.465,18.399 l 0.058,0.285 -37.921,0 0,-21.203 -6.129,0 0,21.203 -34.641,0 1.172,-5.203 c 0,0 2.187,-9.652 -6.367,-13.188 -8.965,-3.671 -14.063,8.645 -14.063,8.645 0,0 -1.965,4.187 -4.336,9.746 l -116.758,0 0,6.133 114.231,0 c -0.844,2.195 -1.711,4.453 -2.473,6.648 -3.613,10.434 -8.379,28.535 -9.355,29.121 -0.996,0.618 -8.086,0.676 -16.289,1.645 -8.223,0.992 -13.782,3.629 -14.739,3.375 -2.332,-0.535 -19.668,-23.066 -31.062,-25.332 -11.367,-2.285 -23.234,12.316 -23.234,12.316 l -14.024,18.289 c 0,0 -5.391,7.2 -1.402,11.184 4.949,4.969 9.754,1.289 9.754,1.289 0,0 18.984,-12.316 21.054,-13.566 1.543,-0.907 2.024,-0.145 2.024,-0.145 0,0 3.101,2.938 4.566,4.774 1.067,1.347 0.11,2.109 0.11,2.109 0,0 -9.356,9.316 -13.008,13.047 -3.067,3.203 -0.254,7.871 -0.254,7.871 l 27.754,55.344 -36.406,-7.649 c 0,0 -6.961,-1.726 -8.536,2.961 -1.543,4.688 5.379,8.508 5.379,8.508 l 48.086,28.199 c 0,0 2.082,1.438 3.078,1.555 0.996,0.144 2.864,-0.852 2.864,-0.852 0,0 6.629,-5.242 15.867,-4.941 9.199,0.285 14.465,5.793 14.465,5.793 0,0 1.257,1.269 2.957,1.59 1.699,0.285 5.8,-4.137 5.8,-4.137 l 42.688,-47.316 c 0,0 4.598,-5.098 1.109,-9.512 -3.074,-3.906 -9.773,0.285 -9.773,0.285 0,0 -26.934,16.141 -27.902,16.434 -1.024,0.273 -0.731,-1.114 -0.731,-1.114 l 26.367,-117.773 36.028,0 0,123.894 c -2.629,1.758 -16.719,12.364 -16.719,37.942 0,27.539 16.668,38.23 17.359,38.672 1.059,0.644 2.414,0.644 3.457,0 0.715,-0.442 17.395,-11.133 17.395,-38.672 0,-22.547 -10.957,-33.457 -15.363,-36.946 l 0,-124.89 39.171,0 16.028,76.496 c 0,0 9.09,43.152 8.582,43.473 -0.535,0.324 -32.649,-20.528 -32.649,-20.528 0,0 -4.441,-4.226 -9.097,0.207 -4.68,4.473 2.117,10.535 2.117,10.535 l 40.598,47.317 c 0,0 1.484,1.726 3.171,1.582 2.403,-0.234 2.688,-1.809 2.688,-1.809 0,0 4.422,-11.492 5.105,-11.492 0.606,0 6.692,6.367 6.692,6.367 0,0 3.054,3.098 4.754,3.301 1.699,0.234 2.558,-1.262 2.558,-1.262 l 6.582,-9.461 c 0,0 1.614,-2.257 2.032,-2.109 0.429,0.09 0.957,1.023 0.957,1.023 l 7.656,14.387 c 0,0 1.594,3.399 3.183,4.551 1.582,1.191 4.864,-0.969 4.864,-0.969 l 46.156,-27.695 c 0,0 6.387,-2.93 4.57,-9.07 -2.039,-7.043 -12.761,-3.399 -12.761,-3.399 0,0 -31.786,6.582 -32.184,6.18 -0.449,-0.449 0.398,-1.59 0.398,-1.59 0,0 24.996,-56.66 24.762,-60.059 -0.137,-2.753 -3.281,-4.804 -3.281,-4.804 0,0 -8.496,-5.188 -8.582,-6.145 -0.149,-0.957 0.613,-1.707 0.613,-1.707 0,0 4.453,-4.687 5.625,-4.988 1.172,-0.344 3.399,1.18 3.399,1.18 l 14.472,7.734 c 0,0 6.895,5.535 12.227,0.301 5.293,-5.176 -1.934,-11.563 -1.934,-11.563 l -14.238,-16.133 c 0,0 -8.301,-12.449 -16.59,-13.3 -8.844,-0.907 -16.793,6.789 -16.793,6.789 0,0 -25.098,24.531 -25.605,25.086 -0.528,0.531 -1.055,-0.313 -1.055,-0.313 0,0 -2.656,-7.098 -3.809,-8.152 -1.191,-1.055 -3.34,-1.524 -3.34,-1.524 0,0 -10.39,-1.496 -10.917,-1.816 -0.528,-0.324 -0.86,-2.434 -0.86,-2.434 l -10.098,-34.187 107.426,0 0,-6.133 z M 261.105,640.535 c 13.524,6.27 29.637,0.41 35.797,-13.152 4.043,-8.906 2.356,-12.215 -3.328,-15 0.879,-2.11 1.387,-4.453 1.387,-6.883 0,-9.816 -7.969,-17.777 -17.793,-17.777 -7.344,0 -13.684,4.472 -16.367,10.863 -5.488,-1.848 -9.668,-1.137 -12.891,6.148 -6.035,13.625 -0.351,29.563 13.195,35.801 m 174.665,-5.496 c 4.085,6.094 11.652,7.297 11.652,7.297 0,0 12.305,6.914 24.219,-2.356 13.457,-10.429 4.687,-29.757 4.687,-29.757 0,0 -2.644,-16.883 -3.515,-19.11 -0.833,-2.258 -6.055,-4.355 -6.055,-4.355 0,0 -2.969,-0.742 -6.25,-0.86 -3.289,-0.117 -6.934,1.055 -8.086,1.7 -1.484,0.789 -1.719,3.601 -1.719,3.601 0,0 -0.449,2.559 -1.152,3.43 -0.735,0.82 -8.086,1.172 -12.949,9.648 -3.301,5.852 -1.25,13.758 -0.547,18.575 0.703,4.824 -0.285,12.187 -0.285,12.187 m 109.566,23.289 c -27.188,22.375 -78.168,25.656 -174.848,25.684 -96.133,-0.028 -146.953,-3.446 -174.14,-25.84 -27.129,-22.52 -29.649,-63.457 -29.649,-137.578 0,-74.688 2.422,-115.781 29.492,-138.399 27.11,-22.39 77.957,-25.691 174.297,-25.722 96.68,0.031 147.66,3.332 174.848,25.722 27.148,22.618 29.57,63.711 29.59,138.399 -0.02,74.355 -2.442,115.254 -29.59,137.734 M 404.355,480.105 c 4.512,10.547 3.458,20.688 2.461,25.84 -4.492,-2.781 -12.597,-8.965 -17.148,-19.55 -4.512,-10.477 -4.121,-22.079 -3.516,-28.407 5.039,3.867 13.692,11.61 18.203,22.117 m -35.671,76.856 0,59.055 c -4.219,-4.532 -10.305,-13.743 -10.305,-29.59 0,-16.133 6.152,-25.188 10.305,-29.465 m -11.36,-96.539 c 0.574,6.324 0.762,17.926 -3.867,28.355 -4.687,10.5 -12.805,16.614 -17.312,19.368 -0.989,-5.207 -1.965,-15.352 2.703,-25.84 4.648,-10.461 13.379,-18.094 18.476,-21.883 m 17.489,154.012 0,-55.93 c 3.996,4.75 8.917,13.476 8.917,27.922 0,14.207 -4.851,23.086 -8.917,28.008"
         style="fill:#ffffff;fill-opacity:1;fill-rule:nonzero;stroke:none"
         id="path58"
         inkscape:connector-curvature="0" /><path
         d="m 692.031,594.352 c 0,-20.633 15.192,-28.692 33.942,-28.692 20.632,0 28.32,10.121 28.32,20.246 0,10.321 -5.625,14.446 -11.066,16.504 -9.375,3.567 -21.563,6.004 -39.942,11.067 -22.879,6.191 -29.633,20.07 -29.633,33.945 0,26.816 24.754,39.379 48.95,39.379 27.941,0 51.378,-14.813 51.378,-42.758 l -23.437,0 c -1.125,17.254 -12.754,23.633 -28.879,23.633 -10.879,0 -24.57,-3.942 -24.57,-17.442 0,-9.379 6.379,-14.629 15.941,-17.257 2.063,-0.559 31.695,-8.25 38.629,-10.309 17.629,-5.25 26.066,-20.258 26.066,-34.133 0,-30.004 -26.621,-42.008 -53.253,-42.008 -30.571,0 -55.321,14.629 -55.887,47.825 l 23.441,0"
         style="fill:#ffffff;fill-opacity:1;fill-rule:nonzero;stroke:none"
         id="path60"
         inkscape:connector-curvature="0" /><path
         d="m 814.469,616.664 c 0,-25.691 12,-51.004 40.691,-51.004 28.692,0 40.695,25.313 40.695,51.004 0,25.695 -12.003,51.012 -40.695,51.012 -28.691,0 -40.691,-25.317 -40.691,-51.012 z m 104.832,0 c 0,-38.258 -24.004,-70.137 -64.141,-70.137 -40.125,0 -64.129,31.879 -64.129,70.137 0,38.258 24.004,70.137 64.129,70.137 40.137,0 64.141,-31.879 64.141,-70.137"
         style="fill:#ffffff;fill-opacity:1;fill-rule:nonzero;stroke:none"
         id="path62"
         inkscape:connector-curvature="0" /><path
         d="m 956.031,594.352 c 0,-20.633 15.196,-28.692 33.946,-28.692 20.623,0 28.323,10.121 28.323,20.246 0,10.321 -5.64,14.446 -11.07,16.504 -9.382,3.567 -21.57,6.004 -39.949,11.067 -22.871,6.191 -29.629,20.07 -29.629,33.945 0,26.816 24.754,39.379 48.946,39.379 27.942,0 51.382,-14.813 51.382,-42.758 l -23.44,0 c -1.13,17.254 -12.75,23.633 -28.88,23.633 -10.879,0 -24.562,-3.942 -24.562,-17.442 0,-9.379 6.367,-14.629 15.937,-17.257 2.063,-0.559 31.695,-8.25 38.635,-10.309 17.63,-5.25 26.06,-20.258 26.06,-34.133 0,-30.004 -26.63,-42.008 -53.257,-42.008 -30.567,0 -55.325,14.629 -55.879,47.825 l 23.437,0"
         style="fill:#ffffff;fill-opacity:1;fill-rule:nonzero;stroke:none"
         id="path64"
         inkscape:connector-curvature="0" /><path
         d="m 1204.66,641.047 c -3.93,15.375 -13.87,26.629 -33.38,26.629 -28.69,0 -40.69,-25.317 -40.69,-51.012 0,-25.691 12,-51.004 40.69,-51.004 20.82,0 32.26,15.559 34.14,35.063 l 22.88,0 c -1.88,-32.067 -24.57,-54.196 -57.02,-54.196 -40.12,0 -64.13,31.879 -64.13,70.137 0,38.258 24.01,70.137 64.13,70.137 30.2,-0.184 54.02,-16.879 56.83,-45.754 l -23.45,0"
         style="fill:#ffffff;fill-opacity:1;fill-rule:nonzero;stroke:none"
         id="path66"
         inkscape:connector-curvature="0" /><path
         d="m 1249.09,683.613 23.43,0 0,-53.258 60.95,0 0,53.258 23.45,0 0,-133.898 -23.45,0 0,60.387 -60.95,0 0,-60.387 -23.43,0 0,133.898"
         style="fill:#ffffff;fill-opacity:1;fill-rule:nonzero;stroke:none"
         id="path68"
         inkscape:connector-curvature="0" /><path
         d="m 1385.01,683.613 23.45,0 0,-133.898 -23.45,0 0,133.898"
         style="fill:#ffffff;fill-opacity:1;fill-rule:nonzero;stroke:none"
         id="path70"
         inkscape:connector-curvature="0" /><path
         d="m 1437.14,683.613 23.45,0 0,-113.644 68.08,0 0,-20.254 -91.53,0 0,133.898"
         style="fill:#ffffff;fill-opacity:1;fill-rule:nonzero;stroke:none"
         id="path72"
         inkscape:connector-curvature="0" /><path
         d="m 1568.22,568.844 23.06,0 c 36.76,0 44.63,21.004 44.63,47.82 0,26.816 -7.87,47.824 -44.63,47.824 l -23.06,0 0,-95.644 z m -23.45,114.769 55.52,0 c 41.25,0 59.07,-30.004 59.07,-66.949 0,-36.941 -17.82,-66.949 -59.07,-66.949 l -55.52,0 0,133.898"
         style="fill:#ffffff;fill-opacity:1;fill-rule:nonzero;stroke:none"
         id="path74"
         inkscape:connector-curvature="0" /><path
         d="m 1703.59,622.668 38.44,0 c 14.82,0 22.88,7.312 22.88,21.375 0,17.066 -11.07,20.445 -23.25,20.445 l -38.07,0 0,-41.82 z m -23.45,60.945 63.96,0 c 29.24,0 44.25,-13.5 44.25,-36.191 0,-25.695 -17.82,-32.254 -22.12,-33.754 l 0,-0.375 c 8.05,-1.129 19.87,-7.133 19.87,-28.324 0,-15.559 2.25,-29.813 7.31,-35.254 l -25.12,0 c -3.57,5.816 -3.57,13.125 -3.57,19.695 0,24.563 -5.06,35.438 -26.63,35.438 l -34.5,0 0,-55.133 -23.45,0 0,133.898"
         style="fill:#ffffff;fill-opacity:1;fill-rule:nonzero;stroke:none"
         id="path76"
         inkscape:connector-curvature="0" /><path
         d="m 1812.14,683.613 96.4,0 0,-20.254 -72.95,0 0,-35.066 67.51,0 0,-19.129 -67.51,0 0,-39.195 74.26,0 0,-20.254 -97.71,0 0,133.898"
         style="fill:#ffffff;fill-opacity:1;fill-rule:nonzero;stroke:none"
         id="path78"
         inkscape:connector-curvature="0" /><path
         d="m 1929.33,683.613 24.76,0 61.13,-98.644 0.38,0 0,98.644 22.32,0 0,-133.898 -24.76,0 -60.95,98.453 -0.55,0 0,-98.453 -22.33,0 0,133.898"
         style="fill:#ffffff;fill-opacity:1;fill-rule:nonzero;stroke:none"
         id="path80"
         inkscape:connector-curvature="0" /><path
         d="m 2065.83,641.605 c 9,1.129 11.44,8.438 11.44,16.692 l -11.44,0 0,25.316 23.44,0 0,-25.316 c 0,-14.442 -9,-25.692 -23.44,-27.567 l 0,10.875"
         style="fill:#ffffff;fill-opacity:1;fill-rule:nonzero;stroke:none"
         id="path82"
         inkscape:connector-curvature="0" /><path
         d="m 2133.15,594.352 c 0,-20.633 15.19,-28.692 33.94,-28.692 20.63,0 28.33,10.121 28.33,20.246 0,10.321 -5.64,14.446 -11.07,16.504 -9.38,3.567 -21.57,6.004 -39.95,11.067 -22.88,6.191 -29.63,20.07 -29.63,33.945 0,26.816 24.76,39.379 48.95,39.379 27.94,0 51.38,-14.813 51.38,-42.758 l -23.44,0 c -1.13,17.254 -12.75,23.633 -28.88,23.633 -10.88,0 -24.56,-3.942 -24.56,-17.442 0,-9.379 6.36,-14.629 15.94,-17.257 2.06,-0.559 31.68,-8.25 38.63,-10.309 17.63,-5.25 26.06,-20.258 26.06,-34.133 0,-30.004 -26.63,-42.008 -53.26,-42.008 -30.57,0 -55.32,14.629 -55.88,47.825 l 23.44,0"
         style="fill:#ffffff;fill-opacity:1;fill-rule:nonzero;stroke:none"
         id="path84"
         inkscape:connector-curvature="0" /></g></g></svg>
